{"asset":{"generator":"3D Builder","version":"2.0"},"scene":0,"scenes":[{"nodes":[0,7]}],"nodes":[{"children":[1,2,3,4,5,6]},{"mesh":0,"matrix":[0.99999994039535522,0,0,0,0,-1.1920928244535389E-7,-0.99999982118606567,0,0,0.99999982118606567,-1.1920928244535389E-7,0,0,2.7300275178276934E-5,-0.12403582036495209,1]},{"mesh":1,"matrix":[0.99999994039535522,0,0,0,0,-1.1920928244535389E-7,-0.99999982118606567,0,0,0.99999982118606567,-1.1920928244535389E-7,0,0,2.7300275178276934E-5,-0.12403582036495209,1]},{"mesh":2,"matrix":[0.99999994039535522,0,0,0,0,-1.1920928244535389E-7,-0.99999982118606567,0,0,0.99999982118606567,-1.1920928244535389E-7,0,0,2.7300275178276934E-5,-0.12403582036495209,1]},{"mesh":3,"matrix":[0.99999994039535522,0,0,0,0,-1.1920928244535389E-7,-0.99999982118606567,0,0,0.99999982118606567,-1.1920928244535389E-7,0,0,2.7300275178276934E-5,-0.12403582036495209,1]},{"mesh":4,"matrix":[0.99999994039535522,0,0,0,0,-1.1920928244535389E-7,-0.99999982118606567,0,0,0.99999982118606567,-1.1920928244535389E-7,0,0,2.7300275178276934E-5,-0.12403582036495209,1]},{"mesh":5,"matrix":[0.99999994039535522,0,0,0,0,-1.1920928244535389E-7,-0.99999982118606567,0,0,0.99999982118606567,-1.1920928244535389E-7,0,0,2.7300275178276934E-5,-0.12403582036495209,1]},{"children":[8,9,10,11,12,13,14,15,16,17,18,19,20,21,22,23]},{"mesh":6,"matrix":[0.99999994039535522,0,0,0,0,-1.1920928244535389E-7,-0.99999982118606567,0,0,0.99999982118606567,-1.1920928244535389E-7,0,0,2.7300275178276934E-5,-0.12403582036495209,1]},{"mesh":7,"matrix":[0.99999994039535522,0,0,0,0,-1.1920928244535389E-7,-0.99999982118606567,0,0,0.99999982118606567,-1.1920928244535389E-7,0,0,2.7300275178276934E-5,-0.12403582036495209,1]},{"mesh":8,"matrix":[0.99999994039535522,0,0,0,0,-1.1920928244535389E-7,-0.99999982118606567,0,0,0.99999982118606567,-1.1920928244535389E-7,0,0,2.7300275178276934E-5,-0.12403582036495209,1]},{"mesh":9,"matrix":[0.99999994039535522,0,0,0,0,-1.1920928244535389E-7,-0.99999982118606567,0,0,0.99999982118606567,-1.1920928244535389E-7,0,0,2.7300275178276934E-5,-0.12403582036495209,1]},{"mesh":10,"matrix":[0.99999994039535522,0,0,0,0,-1.1920928244535389E-7,-0.99999982118606567,0,0,0.99999982118606567,-1.1920928244535389E-7,0,0,2.7300275178276934E-5,-0.12403582036495209,1]},{"mesh":11,"matrix":[0.99999994039535522,0,0,0,0,-1.1920928244535389E-7,-0.99999982118606567,0,0,0.99999982118606567,-1.1920928244535389E-7,0,0,2.7300275178276934E-5,-0.12403582036495209,1]},{"mesh":12,"matrix":[0.99999994039535522,0,0,0,0,-1.1920928244535389E-7,-0.99999982118606567,0,0,0.99999982118606567,-1.1920928244535389E-7,0,0,2.7300275178276934E-5,-0.12403582036495209,1]},{"mesh":13,"matrix":[0.99999994039535522,0,0,0,0,-1.1920928244535389E-7,-0.99999982118606567,0,0,0.99999982118606567,-1.1920928244535389E-7,0,0,2.7300275178276934E-5,-0.12403582036495209,1]},{"mesh":14,"matrix":[0.99999994039535522,0,0,0,0,-1.1920928244535389E-7,-0.99999982118606567,0,0,0.99999982118606567,-1.1920928244535389E-7,0,0,2.7300275178276934E-5,-0.12403582036495209,1]},{"mesh":15,"matrix":[0.99999994039535522,0,0,0,0,-1.1920928244535389E-7,-0.99999982118606567,0,0,0.99999982118606567,-1.1920928244535389E-7,0,0,2.7300275178276934E-5,-0.12403582036495209,1]},{"mesh":16,"matrix":[0.99999994039535522,0,0,0,0,-1.1920928244535389E-7,-0.99999982118606567,0,0,0.99999982118606567,-1.1920928244535389E-7,0,0,2.7300275178276934E-5,-0.12403582036495209,1]},{"mesh":17,"matrix":[0.99999994039535522,0,0,0,0,-1.1920928244535389E-7,-0.99999982118606567,0,0,0.99999982118606567,-1.1920928244535389E-7,0,0,2.7300275178276934E-5,-0.12403582036495209,1]},{"mesh":18,"matrix":[0.99999994039535522,0,0,0,0,-1.1920928244535389E-7,-0.99999982118606567,0,0,0.99999982118606567,-1.1920928244535389E-7,0,0,2.7300275178276934E-5,-0.12403582036495209,1]},{"mesh":19,"matrix":[0.99999994039535522,0,0,0,0,-1.1920928244535389E-7,-0.99999982118606567,0,0,0.99999982118606567,-1.1920928244535389E-7,0,0,2.7300275178276934E-5,-0.12403582036495209,1]},{"mesh":20,"matrix":[0.99999994039535522,0,0,0,0,-1.1920928244535389E-7,-0.99999982118606567,0,0,0.99999982118606567,-1.1920928244535389E-7,0,0,2.7300275178276934E-5,-0.12403582036495209,1]},{"mesh":21,"matrix":[0.99999994039535522,0,0,0,0,-1.1920928244535389E-7,-0.99999982118606567,0,0,0.99999982118606567,-1.1920928244535389E-7,0,0,2.7300275178276934E-5,-0.12403582036495209,1]}],"meshes":[{"primitives":[{"attributes":{"POSITION":0},"mode":4,"indices":1,"material":0}]},{"primitives":[{"attributes":{"POSITION":2},"mode":4,"indices":3,"material":0}]},{"primitives":[{"attributes":{"POSITION":4},"mode":4,"indices":5,"material":0}]},{"primitives":[{"attributes":{"POSITION":6},"mode":4,"indices":7,"material":0}]},{"primitives":[{"attributes":{"POSITION":8},"mode":4,"indices":9,"material":0}]},{"primitives":[{"attributes":{"POSITION":10},"mode":4,"indices":11,"material":0}]},{"primitives":[{"attributes":{"POSITION":12},"mode":4,"indices":13,"material":1}]},{"primitives":[{"attributes":{"POSITION":14},"mode":4,"indices":15,"material":1}]},{"primitives":[{"attributes":{"POSITION":16},"mode":4,"indices":17,"material":1}]},{"primitives":[{"attributes":{"POSITION":18},"mode":4,"indices":19,"material":1}]},{"primitives":[{"attributes":{"POSITION":20},"mode":4,"indices":21,"material":1}]},{"primitives":[{"attributes":{"POSITION":22},"mode":4,"indices":23,"material":1}]},{"primitives":[{"attributes":{"POSITION":24},"mode":4,"indices":25,"material":1}]},{"primitives":[{"attributes":{"POSITION":26},"mode":4,"indices":27,"material":1}]},{"primitives":[{"attributes":{"POSITION":28},"mode":4,"indices":29,"material":1}]},{"primitives":[{"attributes":{"POSITION":30},"mode":4,"indices":31,"material":1}]},{"primitives":[{"attributes":{"POSITION":32},"mode":4,"indices":33,"material":1}]},{"primitives":[{"attributes":{"POSITION":34},"mode":4,"indices":35,"material":1}]},{"primitives":[{"attributes":{"POSITION":36},"mode":4,"indices":37,"material":1}]},{"primitives":[{"attributes":{"POSITION":38},"mode":4,"indices":39,"material":1}]},{"primitives":[{"attributes":{"POSITION":40},"mode":4,"indices":41,"material":1}]},{"primitives":[{"attributes":{"POSITION":42},"mode":4,"indices":43,"material":1}]}],"materials":[{"name":"glass_mat","pbrMetallicRoughness":{"baseColorFactor":[0.50288659334182739,0.50288659334182739,0.50288659334182739,1],"metallicFactor":0,"roughnessFactor":1}},{"name":"microcar_264_Mat","pbrMetallicRoughness":{"baseColorFactor":[0.50288659334182739,0.50288659334182739,0.50288659334182739,1],"metallicFactor":0,"roughnessFactor":1}}],"accessors":[{"bufferView":0,"byteOffset":0,"count":161,"componentType":5126,"type":"VEC3","min":[-115.6988525390625,-116.22480773925781,163.40626525878906],"max":[-96.230026245117188,31.57769775390625,230.78759765625]},{"bufferView":1,"byteOffset":0,"count":954,"componentType":5125,"type":"SCALAR"},{"bufferView":2,"byteOffset":0,"count":161,"componentType":5126,"type":"VEC3","min":[96.48358154296875,-116.22480773925781,163.40626525878906],"max":[115.95790863037109,31.57769775390625,230.78759765625]},{"bufferView":3,"byteOffset":0,"count":954,"componentType":5125,"type":"SCALAR"},{"bufferView":4,"byteOffset":0,"count":111,"componentType":5126,"type":"VEC3","min":[-113.85648345947266,43.947071075439453,164.84634399414062],"max":[-94.580535888671875,156.42503356933594,233.55207824707031]},{"bufferView":5,"byteOffset":0,"count":654,"componentType":5125,"type":"SCALAR"},{"bufferView":6,"byteOffset":0,"count":111,"componentType":5126,"type":"VEC3","min":[94.835929870605469,43.947071075439453,164.84634399414062],"max":[114.11187744140625,156.42503356933594,233.55207824707031]},{"bufferView":7,"byteOffset":0,"count":654,"componentType":5125,"type":"SCALAR"},{"bufferView":8,"byteOffset":0,"count":164,"componentType":5126,"type":"VEC3","min":[-84.3841552734375,117.63800048828125,182.34237670898437],"max":[84.599128723144531,238.05300903320312,238.81465148925781]},{"bufferView":9,"byteOffset":0,"count":972,"componentType":5125,"type":"SCALAR"},{"bufferView":10,"byteOffset":0,"count":218,"componentType":5126,"type":"VEC3","min":[-104.96243286132812,-129.31607055664062,166.34523010253906],"max":[105.21965789794922,-54.697532653808594,236.95391845703125]},{"bufferView":11,"byteOffset":0,"count":1296,"componentType":5125,"type":"SCALAR"},{"bufferView":12,"byteOffset":0,"count":618139,"componentType":5126,"type":"VEC3","min":[-148.20799255371094,-355.0303955078125,-2.7315067200106569E-5],"max":[148.20623779296875,354.77871704101562,249.77239990234375]},{"bufferView":13,"byteOffset":0,"count":3715938,"componentType":5125,"type":"SCALAR"},{"bufferView":14,"byteOffset":0,"count":312,"componentType":5126,"type":"VEC3","min":[-25.012907028198242,335.32989501953125,115.42262268066406],"max":[25.348299026489258,336.63946533203125,132.72428894042969]},{"bufferView":15,"byteOffset":0,"count":1860,"componentType":5125,"type":"SCALAR"},{"bufferView":16,"byteOffset":0,"count":1393,"componentType":5126,"type":"VEC3","min":[10.239937782287598,-117.88198852539062,155.05143737792969],"max":[13.199859619140625,-116.50495910644531,158.07879638671875]},{"bufferView":17,"byteOffset":0,"count":8346,"componentType":5125,"type":"SCALAR"},{"bufferView":18,"byteOffset":0,"count":105,"componentType":5126,"type":"VEC3","min":[86.402847290039063,-119.42583465576172,145.98005676269531],"max":[90.356491088867188,-114.81558227539062,149.94789123535156]},{"bufferView":19,"byteOffset":0,"count":618,"componentType":5125,"type":"SCALAR"},{"bufferView":20,"byteOffset":0,"count":105,"componentType":5126,"type":"VEC3","min":[88.464851379394531,-120.21017456054687,155.01950073242187],"max":[91.438957214355469,-116.82080078125,158.01136779785156]},{"bufferView":21,"byteOffset":0,"count":618,"componentType":5125,"type":"SCALAR"},{"bufferView":22,"byteOffset":0,"count":3112,"componentType":5126,"type":"VEC3","min":[-95.195632934570313,-81.876724243164063,55.922565460205078],"max":[-8.9427499771118164,38.780784606933594,217.03584289550781]},{"bufferView":23,"byteOffset":0,"count":18672,"componentType":5125,"type":"SCALAR"},{"bufferView":24,"byteOffset":0,"count":3114,"componentType":5126,"type":"VEC3","min":[14.349750518798828,-81.876724243164063,55.922565460205078],"max":[100.60264587402344,38.780784606933594,217.03584289550781]},{"bufferView":25,"byteOffset":0,"count":18684,"componentType":5125,"type":"SCALAR"},{"bufferView":26,"byteOffset":0,"count":121,"componentType":5126,"type":"VEC3","min":[-96.838851928710938,-6.3633127212524414,83.811103820800781],"max":[-93.133628845214844,6.4559063911437988,96.626777648925781]},{"bufferView":27,"byteOffset":0,"count":714,"componentType":5125,"type":"SCALAR"},{"bufferView":28,"byteOffset":0,"count":121,"componentType":5126,"type":"VEC3","min":[98.5406265258789,-6.3633127212524414,83.811103820800781],"max":[102.25297546386719,6.4559063911437988,96.626777648925781]},{"bufferView":29,"byteOffset":0,"count":714,"componentType":5125,"type":"SCALAR"},{"bufferView":30,"byteOffset":0,"count":741,"componentType":5126,"type":"VEC3","min":[-3.0690469741821289,-67.882781982421875,54.7833137512207],"max":[10.296734809875488,-1.6891875267028809,83.5023422241211]},{"bufferView":31,"byteOffset":0,"count":4446,"componentType":5125,"type":"SCALAR"},{"bufferView":32,"byteOffset":0,"count":136,"componentType":5126,"type":"VEC3","min":[-104.44803619384766,-58.0980339050293,102.4578857421875],"max":[-92.753875732421875,4.8552813529968262,115.12448883056641]},{"bufferView":33,"byteOffset":0,"count":804,"componentType":5125,"type":"SCALAR"},{"bufferView":34,"byteOffset":0,"count":136,"componentType":5126,"type":"VEC3","min":[93.007644653320313,-58.0980339050293,102.4578857421875],"max":[104.70534515380859,4.8552813529968262,115.12448883056641]},{"bufferView":35,"byteOffset":0,"count":804,"componentType":5125,"type":"SCALAR"},{"bufferView":36,"byteOffset":0,"count":458,"componentType":5126,"type":"VEC3","min":[92.493049621582031,-108.54084777832031,113.56290435791016],"max":[104.71244049072266,-84.939567565917969,126.27565002441406]},{"bufferView":37,"byteOffset":0,"count":2736,"componentType":5125,"type":"SCALAR"},{"bufferView":38,"byteOffset":0,"count":458,"componentType":5126,"type":"VEC3","min":[-104.45513916015625,-108.54084777832031,113.56290435791016],"max":[-92.235710144042969,-84.939567565917969,126.27565002441406]},{"bufferView":39,"byteOffset":0,"count":2736,"componentType":5125,"type":"SCALAR"},{"bufferView":40,"byteOffset":0,"count":761,"componentType":5126,"type":"VEC3","min":[101.88030242919922,-102.81266021728516,139.55624389648437],"max":[104.71244049072266,-5.7386565208435059,151.35688781738281]},{"bufferView":41,"byteOffset":0,"count":4554,"componentType":5125,"type":"SCALAR"},{"bufferView":42,"byteOffset":0,"count":749,"componentType":5126,"type":"VEC3","min":[-104.45513916015625,-102.81266021728516,139.55624389648437],"max":[-101.63362884521484,-5.7386565208435059,151.35688781738281]},{"bufferView":43,"byteOffset":0,"count":4482,"componentType":5125,"type":"SCALAR"}],"bufferViews":[{"buffer":0,"byteOffset":0,"byteLength":1932,"byteStride":12,"target":34962},{"buffer":0,"byteOffset":1932,"byteLength":3816,"target":34963},{"buffer":0,"byteOffset":5748,"byteLength":1932,"byteStride":12,"target":34962},{"buffer":0,"byteOffset":7680,"byteLength":3816,"target":34963},{"buffer":0,"byteOffset":11496,"byteLength":1332,"byteStride":12,"target":34962},{"buffer":0,"byteOffset":12828,"byteLength":2616,"target":34963},{"buffer":0,"byteOffset":15444,"byteLength":1332,"byteStride":12,"target":34962},{"buffer":0,"byteOffset":16776,"byteLength":2616,"target":34963},{"buffer":0,"byteOffset":19392,"byteLength":1968,"byteStride":12,"target":34962},{"buffer":0,"byteOffset":21360,"byteLength":3888,"target":34963},{"buffer":0,"byteOffset":25248,"byteLength":2616,"byteStride":12,"target":34962},{"buffer":0,"byteOffset":27864,"byteLength":5184,"target":34963},{"buffer":0,"byteOffset":33048,"byteLength":7417668,"byteStride":12,"target":34962},{"buffer":0,"byteOffset":7450716,"byteLength":14863752,"target":34963},{"buffer":0,"byteOffset":22314468,"byteLength":3744,"byteStride":12,"target":34962},{"buffer":0,"byteOffset":22318212,"byteLength":7440,"target":34963},{"buffer":0,"byteOffset":22325652,"byteLength":16716,"byteStride":12,"target":34962},{"buffer":0,"byteOffset":22342368,"byteLength":33384,"target":34963},{"buffer":0,"byteOffset":22375752,"byteLength":1260,"byteStride":12,"target":34962},{"buffer":0,"byteOffset":22377012,"byteLength":2472,"target":34963},{"buffer":0,"byteOffset":22379484,"byteLength":1260,"byteStride":12,"target":34962},{"buffer":0,"byteOffset":22380744,"byteLength":2472,"target":34963},{"buffer":0,"byteOffset":22383216,"byteLength":37344,"byteStride":12,"target":34962},{"buffer":0,"byteOffset":22420560,"byteLength":74688,"target":34963},{"buffer":0,"byteOffset":22495248,"byteLength":37368,"byteStride":12,"target":34962},{"buffer":0,"byteOffset":22532616,"byteLength":74736,"target":34963},{"buffer":0,"byteOffset":22607352,"byteLength":1452,"byteStride":12,"target":34962},{"buffer":0,"byteOffset":22608804,"byteLength":2856,"target":34963},{"buffer":0,"byteOffset":22611660,"byteLength":1452,"byteStride":12,"target":34962},{"buffer":0,"byteOffset":22613112,"byteLength":2856,"target":34963},{"buffer":0,"byteOffset":22615968,"byteLength":8892,"byteStride":12,"target":34962},{"buffer":0,"byteOffset":22624860,"byteLength":17784,"target":34963},{"buffer":0,"byteOffset":22642644,"byteLength":1632,"byteStride":12,"target":34962},{"buffer":0,"byteOffset":22644276,"byteLength":3216,"target":34963},{"buffer":0,"byteOffset":22647492,"byteLength":1632,"byteStride":12,"target":34962},{"buffer":0,"byteOffset":22649124,"byteLength":3216,"target":34963},{"buffer":0,"byteOffset":22652340,"byteLength":5496,"byteStride":12,"target":34962},{"buffer":0,"byteOffset":22657836,"byteLength":10944,"target":34963},{"buffer":0,"byteOffset":22668780,"byteLength":5496,"byteStride":12,"target":34962},{"buffer":0,"byteOffset":22674276,"byteLength":10944,"target":34963},{"buffer":0,"byteOffset":22685220,"byteLength":9132,"byteStride":12,"target":34962},{"buffer":0,"byteOffset":22694352,"byteLength":18216,"target":34963},{"buffer":0,"byteOffset":22712568,"byteLength":8988,"byteStride":12,"target":34962},{"buffer":0,"byteOffset":22721556,"byteLength":17928,"target":34963}],"buffers":[{"byteLength":22739484,"uri":"microcar_gltf.bin"}]}